#Comment line ignore any data following # character 
#Hierarchical Translation and Rotation (.htr) file 
[Header]	
#Header keywords are followed by a single value 
FileType HTR		#Single word string
DataType HTRS		#Translation followed by rotation and scale data
FileVersion 1		#integer
NumSegments 84		#integer
NumFrames 2		#integer
DataFrameRate 30		#integer, data frame rate in this file
EulerRotationOrder ZYX
CalibrationUnits mm
RotationUnits Degrees
GlobalAxisofGravity Y
BoneLengthAxis Y
ScaleFactor 1.00
[SegmentNames&Hierarchy]
#CHILD	PARENT
MASTER GLOBAL
root MASTER
chest root
L_mid_tent01 root
R_mid_tent01 root
spine01 root
Bip01_Neck chest
L_humerus chest
R_humerus chest
weapon_bone chest
Bip01_Head Bip01_Neck
eye_left_bone Bip01_Head
eye_right_bone Bip01_Head
L_forearm L_humerus
L_front_hand L_forearm
L_weapon_bone L_forearm
L_front_hand01_01 L_front_hand
L_front_hand02_01 L_front_hand
L_front_hand03_01 L_front_hand
L_front_hand01_02 L_front_hand01_01
L_front_hand02_02 L_front_hand02_01
L_front_hand03_02 L_front_hand03_01
R_forearm R_humerus
R_front_hand R_forearm
R_weapon_bone R_forearm
R_front_hand01_01 R_front_hand
R_front_hand02_01 R_front_hand
R_front_hand03_01 R_front_hand
R_front_hand01_02 R_front_hand01_01
R_front_hand02_02 R_front_hand02_01
R_front_hand03_02 R_front_hand03_01
null_rope01_connect L_mid_tent01
Rope1_Seg01 null_rope01_connect
Rope1_Seg02 Rope1_Seg01
Rope1_Seg03 Rope1_Seg02
Rope1_Seg04 Rope1_Seg03
Rope1_Seg05 Rope1_Seg04
Rope1_Seg06 Rope1_Seg05
Rope1_Seg07 Rope1_Seg06
Rope1_Seg09 Rope1_Seg07
L_mid_hand01 Rope1_Seg09
L_mid_hand02 Rope1_Seg09
L_mid_hand03 Rope1_Seg09
null_rope02_connect R_mid_tent01
Rope2_Seg01 null_rope02_connect
Rope2_Seg02 Rope2_Seg01
Rope2_Seg03 Rope2_Seg02
Rope2_Seg04 Rope2_Seg03
Rope2_Seg05 Rope2_Seg04
Rope2_Seg06 Rope2_Seg05
Rope2_Seg07 Rope2_Seg06
Rope2_Seg09 Rope2_Seg07
R_mid_hand01 Rope2_Seg09
R_mid_hand02 Rope2_Seg09
R_mid_hand03 Rope2_Seg09
spine02 spine01
spine03 spine02
pelvis spine03
null_rope03_connect pelvis
null_rope04_connect pelvis
Rope3_Seg01 null_rope03_connect
Rope3_Seg02 Rope3_Seg01
Rope3_Seg03 Rope3_Seg02
Rope3_Seg04 Rope3_Seg03
Rope3_Seg05 Rope3_Seg04
Rope3_Seg06 Rope3_Seg05
Rope3_Seg07 Rope3_Seg06
Rope3_Seg08 Rope3_Seg07
Rope3_Seg09 Rope3_Seg08
R_rear_hand01 Rope3_Seg09
R_rear_hand02 Rope3_Seg09
R_rear_hand03 Rope3_Seg09
Rope4_Seg01 null_rope04_connect
Rope4_Seg02 Rope4_Seg01
Rope4_Seg03 Rope4_Seg02
Rope4_Seg04 Rope4_Seg03
Rope4_Seg05 Rope4_Seg04
Rope4_Seg06 Rope4_Seg05
Rope4_Seg07 Rope4_Seg06
Rope4_Seg08 Rope4_Seg07
Rope4_Seg09 Rope4_Seg08
L_rear_hand01 Rope4_Seg09
L_rear_hand02 Rope4_Seg09
L_rear_hand03 Rope4_Seg09
[BasePosition]
#SegmentName Tx, Ty, Tz, Rx, Ry, Rz, BoneLength
MASTER 0.000000 0.000000 0.000000 -90.000000 0.000000 0.000000 10.000000 
root 0.000000 0.000000 0.000000 0.000000 0.000000 0.000000 10.000000 
chest 0.000000 0.000000 0.000000 0.000000 0.000000 0.000000 10.000000 
L_mid_tent01 0.000000 0.000000 0.000000 0.000000 0.000000 0.000000 10.000000 
R_mid_tent01 0.000000 0.000000 0.000000 0.000000 0.000000 0.000000 10.000000 
spine01 0.000000 0.000000 0.000000 0.000000 0.000000 0.000000 10.000000 
Bip01_Neck 0.000000 0.000000 0.000000 0.000000 0.000000 0.000000 10.000000 
L_humerus 0.000000 0.000000 0.000000 0.000000 0.000000 0.000000 10.000000 
R_humerus 0.000000 0.000000 0.000000 0.000000 0.000000 0.000000 10.000000 
weapon_bone 0.000000 0.000000 0.000000 0.000000 0.000000 0.000000 10.000000 
Bip01_Head 0.000000 0.000000 0.000000 0.000000 0.000000 0.000000 10.000000 
eye_left_bone 0.000000 0.000000 0.000000 0.000000 0.000000 0.000000 10.000000 
eye_right_bone 0.000000 0.000000 0.000000 0.000000 0.000000 0.000000 10.000000 
L_forearm 0.000000 0.000000 0.000000 0.000000 0.000000 0.000000 10.000000 
L_front_hand 0.000000 0.000000 0.000000 0.000000 0.000000 0.000000 10.000000 
L_weapon_bone 0.000000 0.000000 0.000000 0.000000 0.000000 0.000000 10.000000 
L_front_hand01_01 0.000000 0.000000 0.000000 0.000000 0.000000 0.000000 10.000000 
L_front_hand02_01 0.000000 0.000000 0.000000 0.000000 0.000000 0.000000 10.000000 
L_front_hand03_01 0.000000 0.000000 0.000000 0.000000 0.000000 0.000000 10.000000 
L_front_hand01_02 0.000000 0.000000 0.000000 0.000000 0.000000 0.000000 10.000000 
L_front_hand02_02 0.000000 0.000000 0.000000 0.000000 0.000000 0.000000 10.000000 
L_front_hand03_02 0.000000 0.000000 0.000000 0.000000 0.000000 0.000000 10.000000 
R_forearm 0.000000 0.000000 0.000000 0.000000 0.000000 0.000000 10.000000 
R_front_hand 0.000000 0.000000 0.000000 0.000000 0.000000 0.000000 10.000000 
R_weapon_bone 0.000000 0.000000 0.000000 0.000000 0.000000 0.000000 10.000000 
R_front_hand01_01 0.000000 0.000000 0.000000 0.000000 0.000000 0.000000 10.000000 
R_front_hand02_01 0.000000 0.000000 0.000000 0.000000 0.000000 0.000000 10.000000 
R_front_hand03_01 0.000000 0.000000 0.000000 0.000000 0.000000 0.000000 10.000000 
R_front_hand01_02 0.000000 0.000000 0.000000 0.000000 0.000000 0.000000 10.000000 
R_front_hand02_02 0.000000 0.000000 0.000000 0.000000 0.000000 0.000000 10.000000 
R_front_hand03_02 0.000000 0.000000 0.000000 0.000000 0.000000 0.000000 10.000000 
null_rope01_connect 0.000000 0.000000 0.000000 0.000000 0.000000 0.000000 10.000000 
Rope1_Seg01 0.000000 0.000000 0.000000 0.000000 0.000000 0.000000 10.000000 
Rope1_Seg02 0.000000 0.000000 0.000000 0.000000 0.000000 0.000000 10.000000 
Rope1_Seg03 0.000000 0.000000 0.000000 0.000000 0.000000 0.000000 10.000000 
Rope1_Seg04 0.000000 0.000000 0.000000 0.000000 0.000000 0.000000 10.000000 
Rope1_Seg05 0.000000 0.000000 0.000000 0.000000 0.000000 0.000000 10.000000 
Rope1_Seg06 0.000000 0.000000 0.000000 0.000000 0.000000 0.000000 10.000000 
Rope1_Seg07 0.000000 0.000000 0.000000 0.000000 0.000000 0.000000 10.000000 
Rope1_Seg09 0.000000 0.000000 0.000000 0.000000 0.000000 0.000000 10.000000 
L_mid_hand01 0.000000 0.000000 0.000000 0.000000 0.000000 0.000000 10.000000 
L_mid_hand02 0.000000 0.000000 0.000000 0.000000 0.000000 0.000000 10.000000 
L_mid_hand03 0.000000 0.000000 0.000000 0.000000 0.000000 0.000000 10.000000 
null_rope02_connect 0.000000 0.000000 0.000000 0.000000 0.000000 0.000000 10.000000 
Rope2_Seg01 0.000000 0.000000 0.000000 0.000000 0.000000 0.000000 10.000000 
Rope2_Seg02 0.000000 0.000000 0.000000 0.000000 0.000000 0.000000 10.000000 
Rope2_Seg03 0.000000 0.000000 0.000000 0.000000 0.000000 0.000000 10.000000 
Rope2_Seg04 0.000000 0.000000 0.000000 0.000000 0.000000 0.000000 10.000000 
Rope2_Seg05 0.000000 0.000000 0.000000 0.000000 0.000000 0.000000 10.000000 
Rope2_Seg06 0.000000 0.000000 0.000000 0.000000 0.000000 0.000000 10.000000 
Rope2_Seg07 0.000000 0.000000 0.000000 0.000000 0.000000 0.000000 10.000000 
Rope2_Seg09 0.000000 0.000000 0.000000 0.000000 0.000000 0.000000 10.000000 
R_mid_hand01 0.000000 0.000000 0.000000 0.000000 0.000000 0.000000 10.000000 
R_mid_hand02 0.000000 0.000000 0.000000 0.000000 0.000000 0.000000 10.000000 
R_mid_hand03 0.000000 0.000000 0.000000 0.000000 0.000000 0.000000 10.000000 
spine02 0.000000 0.000000 0.000000 0.000000 0.000000 0.000000 10.000000 
spine03 0.000000 0.000000 0.000000 0.000000 0.000000 0.000000 10.000000 
pelvis 0.000000 0.000000 0.000000 0.000000 0.000000 0.000000 10.000000 
null_rope03_connect 0.000000 0.000000 0.000000 0.000000 0.000000 0.000000 10.000000 
null_rope04_connect 0.000000 0.000000 0.000000 0.000000 0.000000 0.000000 10.000000 
Rope3_Seg01 0.000000 0.000000 0.000000 0.000000 0.000000 0.000000 10.000000 
Rope3_Seg02 0.000000 0.000000 0.000000 0.000000 0.000000 0.000000 10.000000 
Rope3_Seg03 0.000000 0.000000 0.000000 0.000000 0.000000 0.000000 10.000000 
Rope3_Seg04 0.000000 0.000000 0.000000 0.000000 0.000000 0.000000 10.000000 
Rope3_Seg05 0.000000 0.000000 0.000000 0.000000 0.000000 0.000000 10.000000 
Rope3_Seg06 0.000000 0.000000 0.000000 0.000000 0.000000 0.000000 10.000000 
Rope3_Seg07 0.000000 0.000000 0.000000 0.000000 0.000000 0.000000 10.000000 
Rope3_Seg08 0.000000 0.000000 0.000000 0.000000 0.000000 0.000000 10.000000 
Rope3_Seg09 0.000000 0.000000 0.000000 0.000000 0.000000 0.000000 10.000000 
R_rear_hand01 0.000000 0.000000 0.000000 0.000000 0.000000 0.000000 10.000000 
R_rear_hand02 0.000000 0.000000 0.000000 0.000000 0.000000 0.000000 10.000000 
R_rear_hand03 0.000000 0.000000 0.000000 0.000000 0.000000 0.000000 10.000000 
Rope4_Seg01 0.000000 0.000000 0.000000 0.000000 0.000000 0.000000 10.000000 
Rope4_Seg02 0.000000 0.000000 0.000000 0.000000 0.000000 0.000000 10.000000 
Rope4_Seg03 0.000000 0.000000 0.000000 0.000000 0.000000 0.000000 10.000000 
Rope4_Seg04 0.000000 0.000000 0.000000 0.000000 0.000000 0.000000 10.000000 
Rope4_Seg05 0.000000 0.000000 0.000000 0.000000 0.000000 0.000000 10.000000 
Rope4_Seg06 0.000000 0.000000 0.000000 0.000000 0.000000 0.000000 10.000000 
Rope4_Seg07 0.000000 0.000000 0.000000 0.000000 0.000000 0.000000 10.000000 
Rope4_Seg08 0.000000 0.000000 0.000000 0.000000 0.000000 0.000000 10.000000 
Rope4_Seg09 0.000000 0.000000 0.000000 0.000000 0.000000 0.000000 10.000000 
L_rear_hand01 0.000000 0.000000 0.000000 0.000000 0.000000 0.000000 10.000000 
L_rear_hand02 0.000000 0.000000 0.000000 0.000000 0.000000 0.000000 10.000000 
L_rear_hand03 0.000000 0.000000 0.000000 0.000000 0.000000 0.000000 10.000000 
#Beginning of Data. Separated by tabs
#Fr	Tx	Ty	Tz	Rx	Ry	Rz	SF
[MASTER]
1 0.000010 0.001082 0.000000 0.001660 0.001660 0.001660 0.001082
2 -0.000011 141.863724 0.000000 0.001660 0.001660 0.001660 141.863724
[root]
1 -85.390480 181.245819 1501.114502 -90.214233 -24.357971 -96.185150 1514.426025
2 -85.858635 190.427597 1502.946533 -89.962753 -25.477522 -93.685394 1517.393311
[chest]
1 -84.512650 -34.090519 0.000000 -2.164628 0.132522 171.891541 91.129311
2 -84.512650 -34.090519 0.000000 -2.259726 1.438535 172.078156 91.129311
[L_mid_tent01]
1 27.299500 22.177427 -249.917938 11.517397 37.577404 81.327408 252.380814
2 27.314663 22.168741 -250.015381 13.314367 39.435627 83.681450 252.478180
[R_mid_tent01]
1 23.228794 24.509907 226.238495 179.453629 -31.441013 54.638371 228.744751
2 23.228794 24.509907 226.238495 179.016891 -31.017912 54.753506 228.744751
[spine01]
1 -0.361383 -0.195265 0.000000 0.001869 0.001420 15.534139 0.410763
2 -0.361383 -0.195265 0.000000 0.001869 0.001420 15.534141 0.410763
[Bip01_Neck]
1 165.484543 71.581718 0.000119 175.896118 1.177290 24.871183 180.302734
2 165.484543 71.581718 0.000119 175.896118 1.177290 24.871183 180.302734
[L_humerus]
1 -13.983130 -135.272980 -120.471481 -176.821167 31.304119 -99.540123 181.680161
2 -13.983130 -135.272980 -120.471481 -177.131485 32.137302 -98.794952 181.680161
[R_humerus]
1 -13.983309 -135.273102 125.287651 -166.521591 -28.194382 -106.603188 184.909012
2 -13.983309 -135.273102 125.287651 -166.098190 -29.060413 -105.953957 184.909012
[weapon_bone]
1 235.964890 -300.705902 0.000000 0.000000 -89.951546 -128.212341 382.234833
2 235.964890 -300.705902 0.000000 0.000000 -89.951546 -128.212341 382.234833
[Bip01_Head]
1 186.019958 185.149979 15.270413 1.072246 4.616635 -50.552670 262.901367
2 186.019943 185.149979 15.270412 1.072246 4.616635 -50.552658 262.901367
[eye_left_bone]
1 -24.626970 125.451866 -64.772606 0.000000 -90.000000 -99.840431 143.318359
2 -24.626970 125.451866 -64.772606 0.000000 -90.000000 -99.840431 143.318359
[eye_right_bone]
1 -24.626970 125.451866 64.327362 0.000000 -89.972023 80.159393 143.117676
2 -24.626970 125.451866 64.327362 0.000000 -89.960434 80.159386 143.117676
[L_forearm]
1 322.776093 0.000000 -0.000119 0.000340 0.002322 -73.348732 322.776093
2 322.776093 0.000000 -0.000119 0.000345 0.002322 -73.108437 322.776093
[L_front_hand]
1 241.149185 -0.042021 -3.300071 -178.667953 -1.835447 -27.422350 241.171753
2 241.149185 -0.042021 -3.300071 -178.667953 -1.835447 -27.422350 241.171753
[L_weapon_bone]
1 156.183838 0.000000 0.000000 0.000014 0.000007 0.000001 156.183838
2 156.183838 0.000000 0.000000 0.000014 0.000007 0.000001 156.183838
[L_front_hand01_01]
1 86.095154 20.947098 -0.655860 -0.366594 -0.477154 75.385574 88.609184
2 86.095154 20.947098 -0.655860 -0.366594 -0.477154 75.385574 88.609184
[L_front_hand02_01]
1 86.935165 -11.437475 24.513514 154.403519 -59.888943 -61.371990 91.046425
2 86.935165 -11.437475 24.513514 154.403519 -59.888931 -61.371990 91.046425
[L_front_hand03_01]
1 86.637497 -14.123976 -20.424902 -153.913849 58.118122 -62.702850 90.126129
2 86.637497 -14.123976 -20.424902 -153.913849 58.118122 -62.702866 90.126129
[L_front_hand01_02]
1 71.020905 -0.000179 0.000030 0.000334 -0.002323 -106.379684 71.020905
2 71.020905 -0.000179 0.000030 0.000334 -0.002323 -106.379684 71.020905
[L_front_hand02_02]
1 71.020927 -0.000119 0.000060 0.000334 -0.002323 -106.379684 71.020927
2 71.020927 -0.000119 0.000060 0.000334 -0.002323 -106.379684 71.020927
[L_front_hand03_02]
1 71.020905 -0.000060 0.000060 0.000334 -0.002323 -106.379684 71.020905
2 71.020905 -0.000060 0.000060 0.000334 -0.002323 -106.379684 71.020905
[R_forearm]
1 322.776428 -0.000060 0.000030 0.167080 -0.129903 -53.527328 322.776428
2 322.776428 -0.000060 0.000030 0.166779 -0.130290 -53.261616 322.776428
[R_front_hand]
1 238.847015 -0.006795 2.210259 -1.531694 0.790216 -51.443054 238.857239
2 238.847015 -0.006795 2.210259 -1.531694 0.790216 -51.443054 238.857239
[R_weapon_bone]
1 155.664093 0.002503 -0.000030 0.003487 0.001180 -90.988930 155.664078
2 155.664093 0.002503 -0.000030 0.003487 0.001180 -90.988930 155.664078
[R_front_hand01_01]
1 87.624611 14.231146 22.918642 -154.633484 -59.950607 61.746025 91.683487
2 87.624611 14.231146 22.918642 -154.633499 -59.950619 61.746044 91.683487
[R_front_hand02_01]
1 89.356956 14.367283 -19.491137 154.602676 58.302864 63.744389 92.579636
2 89.356956 14.367283 -19.491137 154.602661 58.302849 63.744389 92.579636
[R_front_hand03_01]
1 87.286232 -22.307278 -0.143439 0.162155 -0.423168 -75.767921 90.091743
2 87.286232 -22.307278 -0.143439 0.162155 -0.423168 -75.767921 90.091743
[R_front_hand01_02]
1 71.020905 0.000060 0.000119 0.002323 -0.000334 106.381714 71.020905
2 71.020905 0.000060 0.000119 0.002323 -0.000334 106.381714 71.020905
[R_front_hand02_02]
1 71.020844 -0.000030 -0.000119 0.002323 -0.000334 106.381714 71.020836
2 71.020844 -0.000030 -0.000119 0.002323 -0.000334 106.381714 71.020836
[R_front_hand03_02]
1 71.020905 0.000000 0.000030 0.002323 -0.000334 106.381714 71.020905
2 71.020905 0.000000 0.000030 0.002323 -0.000334 106.381714 71.020905
[null_rope01_connect]
1 328.732483 0.000000 -0.000238 -124.475037 -45.784042 160.071014 328.732483
2 328.732483 0.000000 -0.000238 -125.367920 -45.798664 161.088867 328.732483
[Rope1_Seg01]
1 5.177040 -5.832824 -1.784898 120.434952 17.546701 -177.088837 8.000590
2 5.150261 -5.822881 -1.885935 120.058762 16.770061 -173.907959 7.999242
[Rope1_Seg02]
1 139.999863 -0.000179 0.000000 3.911952 -14.285460 4.065807 139.999863
2 139.999863 -0.000179 0.000000 4.375796 -15.496033 4.722431 139.999863
[Rope1_Seg03]
1 139.999924 0.000060 -0.000060 -0.149802 -27.066898 11.062918 139.999924
2 139.999924 0.000060 -0.000060 -0.905998 -28.825171 13.294708 139.999924
[Rope1_Seg04]
1 139.999924 -0.000060 -0.000119 -8.534409 -28.230295 19.184029 139.999924
2 139.999924 -0.000060 -0.000119 -7.994242 -26.739744 19.330967 139.999924
[Rope1_Seg05]
1 139.999832 0.000119 -0.000060 -9.728845 -15.832901 2.946238 139.999832
2 139.999832 0.000119 -0.000060 -9.347095 -14.936567 2.245561 139.999832
[Rope1_Seg06]
1 139.999954 0.000119 -0.000060 -17.109577 -14.697092 -8.737972 139.999954
2 139.999954 0.000119 -0.000060 -16.898222 -14.702229 -9.025476 139.999954
[Rope1_Seg07]
1 139.999985 0.000060 0.000000 -14.605040 -10.341377 -13.261849 139.999985
2 139.999985 0.000060 0.000000 -13.769287 -10.049575 -12.032787 139.999985
[Rope1_Seg09]
1 121.602913 0.000119 -0.000089 -89.793175 -1.359789 0.847147 121.602913
2 121.602913 0.000119 -0.000089 -89.793175 -1.359789 0.847147 121.602913
[L_mid_hand01]
1 103.859421 1.038730 8.195221 106.857780 -31.238718 -9.463764 104.187431
2 103.859421 1.038730 8.195221 108.613602 -30.216347 -13.164033 104.187431
[L_mid_hand02]
1 105.572853 -4.139662 -10.864139 -142.330658 25.752552 -28.775375 106.211075
2 105.572853 -4.139662 -10.864139 -142.704300 24.473228 -29.858992 106.211075
[L_mid_hand03]
1 104.641464 17.579376 -3.913581 -16.122049 9.732354 34.224323 106.179977
2 104.641464 17.579376 -3.913581 -16.368958 10.897337 33.883297 106.179977
[null_rope02_connect]
1 328.732849 0.000179 -0.000119 -125.045601 63.980438 -5.714859 328.732849
2 328.732849 0.000179 -0.000119 -120.572510 62.172993 -2.039725 328.732849
[Rope2_Seg01]
1 0.000076 0.000153 0.000000 -79.269737 45.194149 10.014146 0.000171
2 0.000076 0.000156 0.000001 -83.072617 45.205429 5.660428 0.000173
[Rope2_Seg02]
1 139.999741 -0.000060 -0.000119 0.894963 -6.427717 1.383047 139.999756
2 139.999741 -0.000060 -0.000119 0.970824 -6.478658 1.432893 139.999756
[Rope2_Seg03]
1 140.000107 0.000030 0.000000 0.834881 -10.916982 2.565282 140.000107
2 140.000107 0.000030 0.000000 0.921398 -11.228817 2.729182 140.000107
[Rope2_Seg04]
1 139.999802 0.000000 -0.000060 0.090406 -22.604284 4.529010 139.999802
2 139.999802 0.000000 -0.000060 0.092481 -23.898609 5.114901 139.999802
[Rope2_Seg05]
1 139.999985 -0.000060 0.000119 -3.500356 -28.186913 8.477226 139.999985
2 139.999985 -0.000060 0.000119 -3.706094 -29.276506 9.210837 139.999985
[Rope2_Seg06]
1 139.999893 -0.000030 -0.000119 2.626869 -12.039445 10.505118 139.999893
2 139.999893 -0.000030 -0.000119 2.819332 -12.524769 11.008091 139.999893
[Rope2_Seg07]
1 139.999893 0.000060 -0.000060 3.774395 -8.421947 7.415200 139.999893
2 139.999893 0.000060 -0.000060 4.447854 -8.755879 7.982780 139.999893
[Rope2_Seg09]
1 121.338966 0.000089 -0.000060 33.793236 -1.359788 -0.847141 121.338966
2 121.338966 0.000089 -0.000060 33.793236 -1.359788 -0.847141 121.338966
[R_mid_hand01]
1 104.680779 11.144459 -10.335981 -41.523792 25.424656 28.595957 105.778534
2 104.680779 11.144459 -10.335981 -41.523792 25.424656 28.595957 105.778534
[R_mid_hand02]
1 104.070427 2.443552 8.231699 72.847389 -32.746803 10.013901 104.424065
2 104.070427 2.443552 8.231699 72.847389 -32.746803 10.013901 104.424065
[R_mid_hand03]
1 106.028137 -11.221827 -5.996406 -167.901306 10.259192 -37.009720 106.788818
2 106.028137 -11.221827 -5.996406 -167.901306 10.259192 -37.009720 106.788818
[spine02]
1 129.756927 0.001550 0.000119 -0.245322 -4.052059 -4.355547 129.756927
2 129.756927 0.001550 0.000119 -0.245322 -4.052060 -4.355547 129.756927
[spine03]
1 78.613770 0.087280 -4.898806 0.369659 4.260734 -4.885720 78.766304
2 78.613777 0.087280 -4.898806 0.369659 4.260734 -4.885720 78.766312
[pelvis]
1 169.435242 0.051022 0.000000 -0.010007 -0.191417 -1.897554 169.435257
2 169.435242 0.051022 0.000000 -0.010007 -0.191417 -1.897554 169.435257
[null_rope03_connect]
1 -1.257226 -2.466202 137.391083 -87.736305 -83.851524 -162.286957 137.418976
2 -1.257226 -2.466202 137.391083 -82.451279 -86.440140 -166.448074 137.418976
[null_rope04_connect]
1 -1.259640 -2.480268 -137.844437 -87.736305 -83.851524 -162.286957 137.872513
2 -1.259640 -2.480268 -137.844437 -82.451279 -86.440140 -166.448074 137.872513
[Rope3_Seg01]
1 -0.000010 0.000000 -0.000000 127.764687 -51.638802 9.516163 0.000010
2 -0.000009 0.000004 -0.000002 131.736069 -52.028461 7.054958 0.000011
[Rope3_Seg02]
1 139.999924 -0.000119 0.000060 -6.055812 2.048628 -4.213950 139.999924
2 139.999924 -0.000119 0.000060 -5.818430 1.900382 -4.275969 139.999924
[Rope3_Seg03]
1 139.999924 -0.000119 0.000119 -11.363499 3.918591 -6.313810 139.999924
2 139.999924 -0.000119 0.000119 -11.169237 3.705723 -6.508953 139.999924
[Rope3_Seg04]
1 139.999924 0.000119 0.000000 -23.564899 9.063194 -9.824146 139.999924
2 139.999924 0.000119 0.000000 -24.259312 8.860844 -10.442058 139.999924
[Rope3_Seg05]
1 139.999924 -0.000238 0.000060 -40.374737 28.942709 -13.917167 139.999924
2 139.999924 -0.000238 0.000060 -42.942116 29.539516 -15.480412 139.999924
[Rope3_Seg06]
1 139.999893 -0.000119 -0.000060 -9.097279 25.113716 5.854825 139.999893
2 139.999893 -0.000119 -0.000060 -9.044660 25.523018 6.144552 139.999893
[Rope3_Seg07]
1 139.999771 0.000060 -0.000119 -1.064222 6.000492 1.208848 139.999771
2 139.999771 0.000060 -0.000119 -1.082029 6.458601 1.426787 139.999771
[Rope3_Seg08]
1 139.999985 -0.000060 0.000000 -0.610662 6.643798 1.913265 139.999985
2 139.999985 -0.000060 0.000000 -0.560989 7.055523 2.127644 139.999985
[Rope3_Seg09]
1 90.185997 -0.000179 -0.000060 89.793228 -1.359877 -0.847183 90.185997
2 90.185997 -0.000179 -0.000060 89.793228 -1.359877 -0.847183 90.185997
[R_rear_hand01]
1 103.366196 -6.073594 -10.757982 -161.549332 16.664881 -30.089262 104.101845
2 103.366196 -6.073594 -10.757982 -161.256744 19.335098 -29.146374 104.101845
[R_rear_hand02]
1 100.509819 12.039542 -7.992327 -34.282322 19.292505 28.875093 101.543350
2 100.509819 12.039542 -7.992327 -34.546211 20.429941 28.042965 101.543350
[R_rear_hand03]
1 101.539970 5.215704 5.435467 83.364944 -30.932714 7.286236 101.819031
2 101.539970 5.215704 5.435467 81.634911 -30.557810 10.606444 101.819031
[Rope4_Seg01]
1 -0.000038 0.000038 0.000153 116.350197 -24.102667 173.710541 0.000162
2 -0.000038 0.000038 0.000152 112.091850 -23.997303 174.572678 0.000161
[Rope4_Seg02]
1 139.999985 0.000060 0.000119 71.713646 -10.605751 7.072848 139.999985
2 139.999985 0.000060 0.000119 73.514175 -11.170816 6.110663 139.999985
[Rope4_Seg03]
1 139.999924 0.000000 -0.000238 27.995041 4.598715 16.100967 139.999924
2 139.999924 0.000000 -0.000238 30.683409 3.681076 16.306324 139.999924
[Rope4_Seg04]
1 139.999985 0.000000 0.000119 4.924650 12.936352 10.201743 139.999985
2 139.999985 0.000000 0.000119 5.188995 12.836347 10.277199 139.999985
[Rope4_Seg05]
1 139.999802 -0.000060 -0.000119 5.350076 9.363516 11.081156 139.999802
2 139.999802 -0.000060 -0.000119 5.526857 9.316175 11.103761 139.999802
[Rope4_Seg06]
1 139.999924 0.000000 0.000060 6.905994 9.639051 18.276342 139.999924
2 139.999924 0.000000 0.000060 7.132370 9.614382 18.265575 139.999924
[Rope4_Seg07]
1 139.999802 0.000000 0.000000 2.839123 10.236790 15.364678 139.999802
2 139.999802 0.000000 0.000000 2.983598 10.268539 15.309171 139.999802
[Rope4_Seg08]
1 139.999924 0.000000 0.000119 -1.333944 6.102528 7.712814 139.999924
2 139.999924 0.000000 0.000119 -1.254358 6.141128 7.667070 139.999924
[Rope4_Seg09]
1 90.185791 0.000060 0.000060 -135.617828 2.228885 0.850567 90.185791
2 90.185791 0.000060 0.000060 -135.617828 2.228885 0.850567 90.185791
[L_rear_hand01]
1 101.696655 -8.392275 -7.654577 -34.456635 -18.946568 151.656815 102.329041
2 101.696655 -8.392275 -7.654577 -34.320251 -18.367401 151.235657 102.329041
[L_rear_hand02]
1 102.726799 -1.568258 5.773216 83.407906 30.330435 172.796509 102.900848
2 102.726799 -1.568258 5.773216 83.407906 30.330435 172.796509 102.900848
[L_rear_hand03]
1 104.552910 9.721220 -10.420293 -161.377808 -16.474062 -150.510895 105.519653
2 104.552910 9.721220 -10.420293 -161.291214 -16.336201 -150.465271 105.519653
